<?xml version="1.0" encoding="UTF-8" standalone="no"?><!DOCTYPE svg PUBLIC "-//W3C//DTD SVG 1.1//EN" "http://www.w3.org/Graphics/SVG/1.1/DTD/svg11.dtd"><svg width="100%" height="100%" viewBox="0 0 241 273" version="1.1" xmlns="http://www.w3.org/2000/svg" xmlns:xlink="http://www.w3.org/1999/xlink" xml:space="preserve" xmlns:serif="http://www.serif.com/" style="fill-rule:evenodd;clip-rule:evenodd;stroke-linejoin:round;stroke-miterlimit:2;"><path d="M0.308,69.685c-3.979,-1.794 31.545,11.768 54.33,20.669c7.071,-1.059 41.993,20.438 53.15,-25.984c-1.758,0 5.215,-18.913 11.392,-64.37c0,0 9.917,67.074 14.513,75c4.614,7.956 4.511,21.212 31.378,18.898c14.746,-2.537 46.192,-13.131 75,-25.394c0,-0 -44.606,33.819 -50.196,41.929c-0,0 -17.182,15.945 -16.182,27.756c0,-0 0.41,12.457 8,19.811c-1.581,0.431 46.915,45.064 54.835,48c0,-0 -47.512,-16.976 -55.512,-19.976c-0.561,1.122 -34.56,-16.376 -46.653,11.811c-1.411,-0.235 -10.557,39.383 -15.183,75c0,-0 -6.4,-40.638 -9.487,-60.237c0,0 -5.795,-22.598 -14.897,-27.598c-0,-0 -7.213,-8.976 -38.977,1.024c0,-0 -50.354,16.835 -53.74,19.976c0.499,0.642 34.508,-27.255 44.882,-37.102c0,-0 38.543,-26.693 3.543,-56.693c0,-0 -18.307,-18.898 -50.196,-42.52Z"/></svg>