<?xml version="1.0" encoding="UTF-8" standalone="no"?><!DOCTYPE svg PUBLIC "-//W3C//DTD SVG 1.1//EN" "http://www.w3.org/Graphics/SVG/1.1/DTD/svg11.dtd"><svg width="100%" height="100%" viewBox="0 0 266 277" version="1.1" xmlns="http://www.w3.org/2000/svg" xmlns:xlink="http://www.w3.org/1999/xlink" xml:space="preserve" xmlns:serif="http://www.serif.com/" style="fill-rule:evenodd;clip-rule:evenodd;stroke-linejoin:round;stroke-miterlimit:2;"><path d="M88.813,144.145c-2.603,-3.814 -17.392,-41.977 13.352,-67.678c-0.193,0 43.576,-14.764 40.158,-39.567c-0,0 4.724,-28.346 -18.898,-36.614c0.778,-4.359 97.847,41.144 41.339,132.284c-0,-0 52.968,9.448 69.504,-35.433c-0,-0 27.346,31.299 4.905,67.913c0.975,0.715 -16.176,20.618 -33.071,31.299c0,0 23.504,19.203 58.789,-11.648c0.115,-0.154 0.203,-0.234 0.266,-0.234l-0.266,0.234c-3.682,4.921 -34.624,85.949 -133.198,91.766c-1.043,1.252 -106.416,-0.865 -131.693,-111.417c0,-0 23.622,23.622 35.433,20.669c-3.087,0.618 -36.081,-69.437 37.205,-120.472c1.273,0.345 -29.15,49.18 16.175,78.898c0.206,0.303 0.336,0.39 0.36,0.236l-0.36,-0.236Zm48.515,-3.85c-2.152,0.985 -15.755,12.473 0.27,25.345c-0.135,0.453 31.062,15.1 30.709,29.528c0.396,-0.339 11.788,-11.623 24.803,0c0.363,0.968 -18.633,-4.019 -20.079,25.984c0,0 0.277,11.221 5.315,17.126c0,0 5.315,6.496 5.315,11.221c0.91,0.114 -1.599,21.945 -54.33,24.212c-2.176,-0.736 -42.996,0.819 -53.74,-24.212c-0.07,-1.038 -12.545,-23.404 7.677,-29.528c-0,0 18.897,-23.622 -8.268,-31.89c-0,0 27.756,-8.267 33.661,17.717c0,-0 15.355,-10.63 15.355,-21.26c-0,0 -0.591,-10.63 -8.859,-17.716c-0.071,-1.073 -6.006,-21.451 22.171,-26.527c0.153,-0.07 0.248,-0.087 0.27,-0.048l-0.27,0.048Z"/></svg>