<?xml version="1.0" encoding="UTF-8" standalone="no"?><!DOCTYPE svg PUBLIC "-//W3C//DTD SVG 1.1//EN" "http://www.w3.org/Graphics/SVG/1.1/DTD/svg11.dtd"><svg width="100%" height="100%" viewBox="0 0 231 265" version="1.1" xmlns="http://www.w3.org/2000/svg" xmlns:xlink="http://www.w3.org/1999/xlink" xml:space="preserve" xmlns:serif="http://www.serif.com/" style="fill-rule:evenodd;clip-rule:evenodd;stroke-linejoin:round;stroke-miterlimit:2;"><path d="M115.952,263.072c0.975,0 -2.161,-36.614 3.543,-46.063c-0.446,-0.446 71.931,42.356 106.299,-29.708c-1.883,-1.002 19.65,-21.063 -14.173,-88.402c0.439,-0.512 -39.053,-72.951 -61.417,-98.622c2.508,-4.116 -110.067,38.068 -137.008,99.213c0,-0 -27.165,43.787 -3.543,86.811c-0,-0 23.622,53.149 86.22,30.708c0,0 -4.724,57.874 20.079,46.063Zm-20.074,-153.578c0.022,-1.334 -14.18,-26.527 -46.068,-1.146c-0.826,0.611 28.518,-12.551 43.701,15.354l-2.362,25.984c-0,0 -31.89,-25.984 -48.425,-5.905c-0,-0 22.736,-5.906 49.901,25.984c0,0 -1.476,25.984 15.059,50.788c0.383,-0.105 -6.272,-32.112 -4.724,-50.788c-0,0 32.48,-23.622 56.693,-10.63c-7.816,-14.667 -19.076,-19.193 -43.111,-10.63c0,0 -4.133,2.181 -12.401,2.362c-0,0 -0,-19.488 2.362,-23.031c0,-0 10.63,-12.402 28.937,-11.22c0,-0 11.221,-1.182 25.394,8.858c-0.058,-0.574 -24.915,-33.597 -51.969,-11.811c0,-0 0.591,-13.583 5.906,-25.394c0.304,1.114 16.734,-16.987 45.472,2.953c-0.421,-0.481 -23.789,-33.346 -43.701,-12.402c0,0 10.04,-36.614 23.032,-54.33c-0,-0 -23.622,28.346 -33.071,51.968c0.199,-1.295 -6.771,-25.675 -37.795,-2.362c-0,-0 27.165,-11.811 34.252,12.992c-1.044,-0.201 -5.892,13.907 -7.082,22.406c0.001,0.015 -0.001,0.026 -0.005,0.035l0.005,-0.035Z"/></svg>