<?xml version="1.0" encoding="UTF-8" standalone="no"?><!DOCTYPE svg PUBLIC "-//W3C//DTD SVG 1.1//EN" "http://www.w3.org/Graphics/SVG/1.1/DTD/svg11.dtd"><svg width="100%" height="100%" viewBox="0 0 256 221" version="1.1" xmlns="http://www.w3.org/2000/svg" xmlns:xlink="http://www.w3.org/1999/xlink" xml:space="preserve" xmlns:serif="http://www.serif.com/" style="fill-rule:evenodd;clip-rule:evenodd;stroke-linejoin:round;stroke-miterlimit:2;"><path d="M167.717,177.165l11.811,20.079l-14.174,23.622l-75.787,0l-13.976,-24.803l10.629,-20.079l14.174,24.803l53.33,0l13.993,-23.622Zm-40.158,2.363l-73.228,-124.016l146.456,-0l-73.228,124.016Zm109.843,-82.678l17.716,-30.708l-38.551,-66.142l-32.315,0l-12.685,21.26l36,-0l26.291,46.063l-17.716,29.527l21.26,0Zm-197.245,-0.37l-22.44,0l-17.717,-29.157l37.795,-66.843l31.89,0l12.882,20.78l-33.657,-0l-26.469,44.882l17.716,30.338Z"/></svg>