<?xml version="1.0" encoding="UTF-8" standalone="no"?><!DOCTYPE svg PUBLIC "-//W3C//DTD SVG 1.1//EN" "http://www.w3.org/Graphics/SVG/1.1/DTD/svg11.dtd"><svg width="100%" height="100%" viewBox="0 0 201 208" version="1.1" xmlns="http://www.w3.org/2000/svg" xmlns:xlink="http://www.w3.org/1999/xlink" xml:space="preserve" xmlns:serif="http://www.serif.com/" style="fill-rule:evenodd;clip-rule:evenodd;stroke-linejoin:round;stroke-miterlimit:1.5;"><g><path d="M100.394,0c55.408,0 100.393,46.536 100.393,103.856c0,57.319 -44.985,103.855 -100.393,103.855c-55.409,0 -100.394,-46.536 -100.394,-103.855c0,-57.32 44.985,-103.856 100.394,-103.856Zm-0,4.167c53.148,-0 96.227,44.707 96.227,99.689c-0,54.981 -43.079,99.688 -96.227,99.688c-53.149,0 -96.227,-44.707 -96.227,-99.688c-0,-54.982 43.078,-99.689 96.227,-99.689Z"/><path d="M100.394,69.237c18.469,0 33.464,15.512 33.464,34.619c0,19.106 -14.995,34.618 -33.464,34.618c-18.47,0 -33.465,-15.512 -33.465,-34.618c0,-19.107 14.995,-34.619 33.465,-34.619Zm-0,4.167c16.209,-0 29.298,13.683 29.298,30.452c-0,16.768 -13.089,30.451 -29.298,30.451c-16.21,0 -29.298,-13.683 -29.298,-30.451c-0,-16.769 13.088,-30.452 29.298,-30.452Z"/><path d="M3.346,103.856l65.256,-0" style="fill:none;stroke:#000;stroke-width:4.17px;"/><path d="M132.52,103.856l65.925,-0" style="fill:none;stroke:#000;stroke-width:4.17px;"/></g></svg>