<?xml version="1.0" encoding="UTF-8" standalone="no"?><!DOCTYPE svg PUBLIC "-//W3C//DTD SVG 1.1//EN" "http://www.w3.org/Graphics/SVG/1.1/DTD/svg11.dtd"><svg width="100%" height="100%" viewBox="0 0 292 206" version="1.1" xmlns="http://www.w3.org/2000/svg" xmlns:xlink="http://www.w3.org/1999/xlink" xml:space="preserve" xmlns:serif="http://www.serif.com/" style="fill-rule:evenodd;clip-rule:evenodd;stroke-linejoin:round;stroke-miterlimit:2;"><g><path d="M145.992,13.085c41.72,-0 75.591,33.606 75.591,75c-0,41.393 -33.871,75 -75.591,75c-41.719,-0 -75.59,-33.607 -75.59,-75c-0,-41.394 33.871,-75 75.59,-75Zm-46.059,74.668c4.11,15.475 18.423,26.906 35.429,26.906c20.208,0 36.614,-16.141 36.614,-36.023c0,-19.56 -15.879,-35.5 -35.635,-36.011c3.112,-0.664 6.341,-1.013 9.651,-1.013c25.423,0 46.063,20.6 46.063,45.973c0,25.373 -20.64,45.972 -46.063,45.972c-25.367,0 -45.972,-20.509 -46.062,-45.804l0.003,-0Zm36.408,-45.128l-0.019,0.004l-0,-0.004l0.019,-0Z"/><path d="M0,102.848c0,0 36.15,-105.322 145.992,-102.755c0,-0 102.543,-7.087 145.276,102.755c-0,0 -26.284,95.78 -145.276,102.811c0,0 -106.551,4.378 -145.992,-102.811Zm22.428,0.082c9.363,-20.949 44.106,-83.855 123.077,-82.01c0.642,0.015 1.283,0.001 1.923,-0.044c0,0 83.224,-4.84 121.526,82.515c-7.834,18.971 -38.452,76.289 -123.924,81.455c-3.643,0.091 -87.365,1.249 -122.602,-81.915l0,-0.001Z"/></g></svg>