<?xml version="1.0" encoding="UTF-8" standalone="no"?><!DOCTYPE svg PUBLIC "-//W3C//DTD SVG 1.1//EN" "http://www.w3.org/Graphics/SVG/1.1/DTD/svg11.dtd"><svg width="100%" height="100%" viewBox="0 0 202 232" version="1.1" xmlns="http://www.w3.org/2000/svg" xmlns:xlink="http://www.w3.org/1999/xlink" xml:space="preserve" xmlns:serif="http://www.serif.com/" style="fill-rule:evenodd;clip-rule:evenodd;stroke-linejoin:round;stroke-miterlimit:2;"><path d="M113.903,95.341l81.127,0l6.071,6.072l-0,100.08l-11.788,11.788l-35.179,0l-7.21,7.21l0,11.12l-87.869,-0l0,-10.039l7.677,-0l6.413,-6.413l-0,-50.871l6.6,-6.6l15.924,-0l10.781,-10.781l0,-44.036l7.453,-7.53Zm-103.273,0.443l81.496,0l6.47,6.471l0,37.821l-10.186,10.186l-16.953,-0l-6.989,6.988l0,50.739l-4.919,4.92l-49.51,-0l-8.956,-8.956l0,-98.72l9.547,-9.449Zm86.22,-89.468l-7.381,-5.906l-28.347,0l-8.268,8.268l0.296,76.264l6.118,6.118l32.267,-0l5.315,-5.118l0,-79.626Zm-53.149,14.22l-7.429,-7.429l-28.843,0l-7.429,7.429l0,63.095l7.429,7.429l28.843,-0l7.429,-7.429l-0,-63.095Zm156.661,2.324l-7.429,-7.429l-28.843,0l-7.429,7.429l0,60.771l7.429,7.429l28.843,-0l7.429,-7.429l-0,-60.771Zm-49.096,-16.954l-7.382,-5.906l-28.346,-0l-8.268,8.268l0.295,76.263l6.118,6.119l32.268,-0l5.315,-5.119l-0,-79.625Z"/></svg>