<?xml version="1.0" encoding="UTF-8" standalone="no"?><!DOCTYPE svg PUBLIC "-//W3C//DTD SVG 1.1//EN" "http://www.w3.org/Graphics/SVG/1.1/DTD/svg11.dtd"><svg width="100%" height="100%" viewBox="0 0 223 275" version="1.1" xmlns="http://www.w3.org/2000/svg" xmlns:xlink="http://www.w3.org/1999/xlink" xml:space="preserve" xmlns:serif="http://www.serif.com/" style="fill-rule:evenodd;clip-rule:evenodd;stroke-linejoin:round;stroke-miterlimit:2;"><path d="M134.97,0c-0,0 -27.558,16.409 -16.831,56.988c1.75,6.619 5.492,13.904 9.559,21.898c0.296,-0.169 7.79,7.44 18.788,13.764c11.731,6.745 27.206,12.305 34.212,14.535c0,0 49.646,22.441 40.492,94.488c0,0 -9.744,50.788 -74.704,68.504c-0,0 -29.325,8.014 -59.055,2.362c-19.273,-3.663 -39.728,-11.746 -52.969,-22.441c0.711,0.475 -11.284,-8.302 -21.441,-23.622c-6.303,-9.506 -10.925,-22.736 -12.992,-36.614c1.683,-0.184 -11.811,-55.512 59.646,-135.236c-0,-0 39.862,-42.815 75.295,-54.626Zm-31.238,239.508c17.58,4.123 30.37,13.793 28.543,21.582c-1.826,7.788 -17.582,10.763 -35.162,6.64c-17.58,-4.123 -30.37,-13.793 -28.543,-21.582c1.827,-7.788 17.582,-10.763 35.162,-6.64Z"/></svg>